<!DOCTYPE svg PUBLIC "-//W3C//DTD SVG 1.1//EN" "http://www.w3.org/Graphics/SVG/1.1/DTD/svg11.dtd">
<!-- Uploaded to: SVG Repo, www.svgrepo.com, Transformed by: SVG Repo Mixer Tools -->
<svg width="188px" height="188px" viewBox="0 0 24.00 24.00" fill="none" xmlns="http://www.w3.org/2000/svg" transform="rotate(0)matrix(1, 0, 0, 1, 0, 0)" stroke="#ffffff">
<g id="SVGRepo_bgCarrier" stroke-width="0">
<path transform="translate(0, 0), scale(0.75)" d="M16,29.383524200745992C17.872477340552482,29.698848331146177,19.77527135108219,29.134087058168095,21.564146755090192,28.497278227332394C23.42453568812176,27.83501181196934,25.46260321927798,27.16754255520515,26.65239143937938,25.591456333460883C27.83946496787631,24.018966203829315,27.849301762370093,21.873966116960922,28.044137418647026,19.913377471454172C28.21596361568992,18.184327987595456,28.065168127649574,16.47188146566231,27.72805069812128,14.767332200216881C27.408866497910584,13.153457786270971,26.519639171263954,11.754645066089164,26.11516355582964,10.16000759814467C25.5721809598423,8.019308977602511,26.655608997520286,5.087814232493555,24.924893501702066,3.7159379421266205C23.229832304496593,2.372323539420991,20.64857718423128,4.529327202130633,18.52086207959732,4.140276358484005C16.471838618684668,3.76561421298171,15.004901511521558,1.5692382302922532,12.922457972916149,1.5213031161959378C10.835231554029175,1.4732579064798585,8.547978131215437,2.290364814590138,7.193974927397424,3.879546298853958C5.80786844366552,5.506407116430604,6.776454378230789,8.207426670606884,5.668558935604949,10.035139720354756C4.5276788795394545,11.917268020951262,1.280714933663745,12.252977374613915,0.8144599628190985,14.403935427295778C0.36738863214580225,16.466394251258283,2.6395717121772133,18.13388926087579,3.494818985838217,20.063179616458953C4.270547276358843,21.813088859721468,4.205992668398503,24.063251499924686,5.652250162004034,25.317155803513877C7.114485609917166,26.584912983065635,9.410814704252685,26.046164602873358,11.212017202334756,26.7539854363769C12.92542561513568,27.427305716674155,14.18460230462414,29.077812250471606,16,29.383524200745992" fill="#e01f1f" strokewidth="0"/>
</g>
<g id="SVGRepo_tracerCarrier" stroke-linecap="round" stroke-linejoin="round"/>
<g id="SVGRepo_iconCarrier"> <path d="M12 10V3M13.4141 10.5857L18.3639 5.63599M14 12H21M13.4143 13.4141L18.364 18.3639M12 14V21M10.5859 13.4143L5.63611 18.364M10 12H3M10.5857 10.5859L5.63599 5.63611M21 12C21 16.9706 16.9706 21 12 21C7.02944 21 3 16.9706 3 12C3 7.02944 7.02944 3 12 3C16.9706 3 21 7.02944 21 12ZM14 12C14 13.1046 13.1046 14 12 14C10.8954 14 10 13.1046 10 12C10 10.8954 10.8954 10 12 10C13.1046 10 14 10.8954 14 12Z" stroke="#ffffff" stroke-width="2.112" stroke-linecap="round" stroke-linejoin="round"/> </g>
</svg>